<?xml version="1.0" encoding="utf-8"?>
<!-- Generator: Adobe Illustrator 15.0.0, SVG Export Plug-In . SVG Version: 6.00 Build 0)  -->
<!DOCTYPE svg PUBLIC "-//W3C//DTD SVG 1.1//EN" "http://www.w3.org/Graphics/SVG/1.1/DTD/svg11.dtd">
<svg version="1.1" id="Layer_1" xmlns="http://www.w3.org/2000/svg" xmlns:xlink="http://www.w3.org/1999/xlink" x="0px" y="0px"
	 width="489.018px" height="600px" viewBox="0 0 489.018 600" enable-background="new 0 0 489.018 600" xml:space="preserve">
<g>
	<polygon fill="#FFFFFF" points="119.65,417.586 119.65,420.422 98.077,420.422 98.077,430.337 116.846,430.337 116.846,433.177 
		98.077,433.177 98.077,446.908 93.843,446.908 93.843,417.586 	"/>
	<path fill="#FFFFFF" d="M226.943,437.751c0.116,1.053,0.438,2.014,0.973,2.905c0.534,0.895,1.26,1.653,2.173,2.293
		c0.918,0.63,1.997,1.128,3.237,1.478c1.233,0.354,2.6,0.532,4.088,0.532c1.299,0,2.556-0.108,3.781-0.315
		c1.219-0.217,2.288-0.552,3.2-1.024c0.919-0.463,1.65-1.073,2.204-1.816c0.554-0.744,0.831-1.659,0.831-2.732
		c0-0.876-0.297-1.62-0.888-2.226c-0.589-0.61-1.377-1.132-2.349-1.57c-0.973-0.434-2.078-0.817-3.316-1.146
		c-1.24-0.32-2.491-0.62-3.746-0.906c-1.603-0.345-3.197-0.729-4.78-1.162c-1.583-0.442-3.013-0.994-4.295-1.654
		c-1.275-0.669-2.313-1.486-3.113-2.462c-0.803-0.974-1.207-2.195-1.207-3.662c0-1.216,0.328-2.294,0.975-3.225
		c0.649-0.931,1.555-1.714,2.72-2.348c1.161-0.641,2.547-1.123,4.149-1.443c1.598-0.33,3.373-0.487,5.319-0.487
		c2.556,0,4.692,0.275,6.413,0.827c1.713,0.552,3.089,1.25,4.118,2.098c1.03,0.847,1.78,1.786,2.258,2.815
		c0.479,1.034,0.758,2.028,0.831,2.993h-4.349c-0.116-0.965-0.428-1.816-0.943-2.569c-0.515-0.748-1.194-1.379-2.031-1.886
		c-0.841-0.507-1.797-0.886-2.865-1.142c-1.069-0.252-2.213-0.38-3.432-0.38c-1.105,0-2.193,0.079-3.261,0.251
		c-1.071,0.173-2.023,0.443-2.861,0.828c-0.842,0.384-1.516,0.865-2.031,1.461c-0.519,0.597-0.775,1.329-0.775,2.206
		c0,0.901,0.295,1.664,0.885,2.284c0.596,0.621,1.376,1.162,2.349,1.609c0.974,0.453,2.087,0.843,3.348,1.168
		c1.255,0.325,2.557,0.644,3.891,0.954c1.605,0.369,3.193,0.764,4.775,1.188c1.583,0.423,2.994,0.959,4.233,1.609
		c1.241,0.65,2.255,1.447,3.035,2.393s1.175,2.142,1.175,3.584c0,1.443-0.352,2.697-1.059,3.771
		c-0.706,1.073-1.698,1.975-2.974,2.712c-1.28,0.733-2.789,1.285-4.522,1.649c-1.74,0.364-3.635,0.551-5.696,0.551
		c-1.866,0-3.683-0.231-5.435-0.698c-1.755-0.463-3.318-1.133-4.694-1.989c-1.371-0.866-2.491-1.91-3.347-3.16
		c-0.857-1.24-1.305-2.625-1.347-4.155H226.943z"/>
	<polygon fill="#FFFFFF" points="275.296,417.586 275.296,430.337 296.81,430.337 296.81,417.586 301.049,417.586 301.049,446.908 
		296.81,446.908 296.81,433.094 275.296,433.094 275.296,446.908 271.062,446.908 271.062,417.586 	"/>
	<path fill="#FFFFFF" d="M375.496,417.586h14.99c1.949,0,3.667,0.246,5.155,0.739c1.485,0.491,2.736,1.142,3.745,1.929
		c1.015,0.788,1.772,1.684,2.285,2.688c0.517,1.004,0.777,1.999,0.777,2.987c0,1.079-0.271,2.112-0.798,3.117
		c-0.541,1.004-1.314,1.9-2.323,2.693c-1.015,0.792-2.255,1.412-3.751,1.885c-1.487,0.463-3.181,0.699-5.091,0.699h-10.757v12.584
		h-4.233V417.586z M379.729,431.567h10.757c1.028,0,2.014-0.147,2.954-0.443c0.93-0.295,1.753-0.699,2.456-1.211
		c0.704-0.507,1.266-1.107,1.688-1.802c0.419-0.688,0.625-1.428,0.625-2.221c0-0.792-0.196-1.521-0.6-2.181
		c-0.399-0.669-0.941-1.235-1.631-1.723c-0.684-0.478-1.496-0.857-2.431-1.142c-0.936-0.286-1.96-0.424-3.062-0.424h-10.757V431.567
		z"/>
	<path fill="#FFFFFF" d="M434.902,383.853c-1.684,0.384-5.238,3.092-8.069,3.265c-2.84,0.172-33.378-2.151-35.785-1.979
		c-2.402,0.178-11.022,1.423-13.607,1.979c-4.293,0.172-11.925-5.878-13.47-4.85l-0.434,5.283h-4.421h-9.807h-38.883l0.354-3.698
		c0,0-18.762,3.781-25.718,3.698c0,0-46.209-1.03-58.575-1.852c-12.364-0.817-59.264,2.623-66.479,2.964
		c0,0-15.557-1.866-18.188-4.259l-0.818,7.011l-87.458,0.108l2.897,6.809l84.83,0.015l0.357,6.435c0,0,9.277-2.752,17.861-2.752
		c0,0,53.947,2.752,66.828,2.752c0,0,49.47-2.925,58.572-2.925c9.104,0,17.905,2.318,25.891,4.037l-0.354-3.264l21.021,1.634v1.63
		h11.767v-1.807l20.756-2.831v4.638c0.403,0.196,11.067-4.554,13.47-4.21c0,0,12.661,1.636,15.325,1.547
		c2.664-0.084,34.324-2.491,36.475-1.719c2.147,0.778,2.408,1.625,4.919,2.092c2.83-5.961,5.361-12.258,6.66-16.019
		c-1.378-1.615-3.239-3.21-5.484-3.732"/>
	<path fill="#FFFFFF" d="M338.272,404.48c-13.923,0-25.202,11.284-25.202,25.207c0,13.912,11.279,25.195,25.202,25.195
		c13.917,0,25.2-11.283,25.2-25.195C363.473,415.765,352.189,404.48,338.272,404.48 M348.689,450.531
		c-1.9,0.926-4.194,0.133-5.12-1.768c-0.926-1.899-0.139-4.189,1.763-5.115c0.088-0.039,0.177-0.06,0.266-0.099
		c-1.093-3.5-3.309-6.39-6.061-7.945c-2.565,0.768-5.381-0.395-6.592-2.881c-0.365-0.757-0.532-1.55-0.547-2.333
		c-2.88-3.362-6.114-10.176-5.321-13.721c-0.404-0.334-0.744-0.753-0.985-1.25c-0.925-1.91-0.138-4.194,1.763-5.126
		c1.901-0.92,4.195-0.132,5.12,1.769c0.926,1.9,0.138,4.194-1.763,5.119c-0.088,0.04-0.177,0.06-0.266,0.099
		c1.029,3.289,3.043,6.021,5.563,7.632c2.53-0.68,5.268,0.496,6.449,2.934c0.295,0.61,0.452,1.24,0.511,1.871
		c3.019,2.992,6.854,10.619,5.993,14.444c0.403,0.334,0.747,0.753,0.993,1.26C351.377,447.321,350.59,449.605,348.689,450.531"/>
	<path fill="#FFFFFF" d="M71.65,359.769c0,1.911,0.383,3.565,1.145,4.982c0.761,1.413,1.764,2.58,3.011,3.496
		c1.242,0.915,2.646,1.604,4.208,2.067c1.556,0.458,3.156,0.685,4.793,0.685c1.669,0,3.192-0.197,4.568-0.596
		c1.377-0.399,2.565-0.921,3.57-1.576c1.002-0.649,1.829-1.397,2.479-2.23c0.652-0.831,1.105-1.683,1.366-2.555h4.18
		c-0.368,1.306-0.992,2.521-1.866,3.644c-0.872,1.122-1.996,2.107-3.373,2.949c-1.376,0.852-2.974,1.512-4.792,1.999
		c-1.821,0.481-3.867,0.723-6.131,0.723c-2.641,0-5.015-0.31-7.139-0.925c-2.117-0.616-3.926-1.507-5.433-2.684
		c-1.504-1.167-2.668-2.594-3.486-4.273c-0.814-1.678-1.224-3.589-1.224-5.745c0-1.645,0.387-3.244,1.169-4.804
		c0.781-1.557,1.906-2.935,3.373-4.127c1.467-1.196,3.267-2.156,5.411-2.879c2.132-0.725,4.557-1.089,7.27-1.089
		c2.309,0,4.359,0.197,6.159,0.596c1.807,0.404,3.373,0.951,4.713,1.649c1.337,0.704,2.452,1.536,3.343,2.501
		c0.894,0.965,1.597,2.028,2.117,3.19h-4.345c-1.004-1.886-2.481-3.289-4.431-4.204c-1.952-0.916-4.472-1.379-7.557-1.379
		c-1.933,0-3.695,0.285-5.295,0.852c-1.598,0.571-2.974,1.344-4.124,2.319c-1.154,0.979-2.058,2.106-2.708,3.386
		C71.972,357.022,71.65,358.366,71.65,359.769"/>
	<path fill="#FFFFFF" d="M142.89,360.128c0,1.935-0.379,3.708-1.14,5.312c-0.769,1.604-1.891,2.988-3.373,4.146
		c-1.489,1.161-3.303,2.067-5.44,2.718c-2.134,0.654-4.598,0.979-7.387,0.979c-2.747,0-5.201-0.325-7.355-0.979
		c-2.156-0.65-3.965-1.557-5.433-2.718c-1.472-1.157-2.587-2.541-3.348-4.146s-1.14-3.378-1.14-5.312c0-1.93,0.379-3.696,1.14-5.307
		c0.761-1.605,1.876-2.988,3.348-4.149c1.467-1.162,3.276-2.068,5.433-2.718c2.154-0.65,4.608-0.976,7.355-0.976
		c2.79,0,5.253,0.325,7.387,0.976c2.137,0.649,3.951,1.556,5.44,2.718c1.481,1.161,2.604,2.544,3.373,4.149
		C142.511,356.432,142.89,358.198,142.89,360.128 M138.764,360.128c0-1.688-0.342-3.204-1.034-4.544
		c-0.684-1.344-1.622-2.471-2.811-3.387c-1.191-0.921-2.582-1.624-4.179-2.127c-1.599-0.492-3.329-0.738-5.189-0.738
		c-1.854,0-3.584,0.246-5.182,0.738c-1.597,0.503-2.989,1.206-4.18,2.127c-1.189,0.916-2.116,2.043-2.786,3.387
		c-0.673,1.34-1.005,2.855-1.005,4.544c0,1.689,0.332,3.206,1.005,4.55c0.67,1.339,1.597,2.466,2.786,3.388
		c1.191,0.92,2.583,1.624,4.18,2.121c1.598,0.492,3.328,0.738,5.182,0.738c1.861,0,3.591-0.246,5.189-0.738
		c1.597-0.497,2.988-1.201,4.179-2.121c1.189-0.922,2.127-2.049,2.811-3.388C138.421,363.334,138.764,361.817,138.764,360.128"/>
	<polygon fill="#FFFFFF" points="155.655,347.555 175.276,369.222 175.276,347.555 179.404,347.555 179.404,372.629 
		173.883,372.629 154.264,350.961 154.264,372.629 150.134,372.629 150.134,347.555 	"/>
	<polygon fill="#FFFFFF" points="211.734,347.555 211.734,349.982 190.717,349.982 190.717,358.465 209.001,358.465 
		209.001,360.892 190.717,360.892 190.717,372.629 186.592,372.629 186.592,347.555 	"/>
	<polygon fill="#FFFFFF" points="222.993,347.555 222.993,370.206 242.393,370.206 242.393,372.629 218.87,372.629 218.87,347.555 	
		"/>
	<path fill="#FFFFFF" d="M253.653,347.555v16.892c0,1.009,0.286,1.929,0.867,2.747c0.571,0.827,1.324,1.511,2.255,2.067
		s1.979,0.985,3.15,1.29c1.167,0.3,2.343,0.453,3.535,0.453c1.265,0,2.525-0.144,3.791-0.419c1.265-0.28,2.401-0.693,3.407-1.23
		c0.998-0.547,1.807-1.221,2.421-2.033c0.61-0.808,0.916-1.742,0.916-2.807v-16.96h4.126v16.777c0,1.453-0.434,2.738-1.31,3.866
		c-0.877,1.111-2.009,2.062-3.397,2.82c-1.393,0.763-2.953,1.34-4.688,1.737c-1.728,0.398-3.46,0.601-5.208,0.601
		c-1.673,0-3.338-0.197-4.992-0.581c-1.648-0.388-3.15-0.954-4.489-1.718c-1.334-0.768-2.418-1.708-3.254-2.85
		c-0.838-1.133-1.256-2.447-1.256-3.949v-16.704H253.653z"/>
	<polygon fill="#FFFFFF" points="311.066,347.555 311.066,349.982 289.439,349.982 289.439,358.465 309.787,358.465 
		309.787,360.892 289.439,360.892 289.439,370.206 312.013,370.206 312.013,372.629 285.31,372.629 285.31,347.555 	"/>
	<polygon fill="#FFFFFF" points="324.724,347.555 344.347,369.222 344.347,347.555 348.473,347.555 348.473,372.629 
		342.949,372.629 323.335,350.961 323.335,372.629 319.2,372.629 319.2,347.555 	"/>
	<path fill="#FFFFFF" d="M359.845,359.769c0,1.911,0.379,3.565,1.142,4.982c0.759,1.413,1.764,2.58,3.009,3.496
		c1.245,0.915,2.648,1.604,4.209,2.067c1.556,0.458,3.156,0.685,4.796,0.685c1.668,0,3.189-0.197,4.568-0.596
		c1.378-0.399,2.564-0.921,3.568-1.576c1-0.649,1.827-1.397,2.477-2.23c0.65-0.831,1.108-1.683,1.368-2.555h4.181
		c-0.369,1.306-0.989,2.521-1.866,3.644c-0.876,1.122-1.999,2.107-3.372,2.949c-1.374,0.852-2.974,1.512-4.795,1.999
		c-1.816,0.481-3.864,0.723-6.129,0.723c-2.64,0-5.022-0.31-7.14-0.925c-2.116-0.616-3.928-1.507-5.435-2.684
		c-1.507-1.167-2.668-2.594-3.485-4.273c-0.817-1.678-1.221-3.589-1.221-5.745c0-1.645,0.384-3.244,1.171-4.804
		c0.778-1.557,1.9-2.935,3.368-4.127c1.467-1.196,3.269-2.156,5.41-2.879c2.132-0.725,4.559-1.089,7.271-1.089
		c2.309,0,4.362,0.197,6.158,0.596c1.807,0.404,3.373,0.951,4.712,1.649c1.339,0.704,2.451,1.536,3.348,2.501
		c0.886,0.965,1.595,2.028,2.116,3.19h-4.347c-1.004-1.886-2.48-3.289-4.431-4.204c-1.955-0.916-4.475-1.379-7.557-1.379
		c-1.93,0-3.697,0.285-5.298,0.852c-1.595,0.571-2.973,1.344-4.12,2.319c-1.156,0.979-2.058,2.106-2.708,3.386
		C360.165,357.022,359.845,358.366,359.845,359.769"/>
	<polygon fill="#FFFFFF" points="422.161,347.555 422.161,349.982 400.539,349.982 400.539,358.465 420.881,358.465 
		420.881,360.892 400.539,360.892 400.539,370.206 423.111,370.206 423.111,372.629 396.403,372.629 396.403,347.555 	"/>
	<polygon fill="#FFFFFF" points="143.224,417.586 143.224,444.072 163.138,444.072 163.138,446.908 138.99,446.908 138.99,417.586 	
		"/>
	<polygon fill="#FFFFFF" points="189.348,432.375 200.676,417.581 205.541,417.581 191.35,435.127 191.35,446.908 187.115,446.908 
		187.115,435.127 172.925,417.581 177.789,417.581 	"/>
	<path fill="#FFFFFF" d="M231.535,231.882c1.732-1.398-7.008-7.045-7.008-7.045l5.807-2.08l8.53,6.397
		c0,0,20.127-3.005,24.278-5.612c2.098-1.315-7.901-7.96-7.901-7.96l5.928-2.272l10.259,7.958l48.867,0.244
		c1.388,0.049,6.843,0.795,8.615,1.169c15.867,3.338,22.735,11.186,27.137,18.9c3.475,5.817,4.917,14.922,2.471,20.729
		c-2.707,11.587-16.325,19.938-31.429,26.76c-3.914,1.986-12.283,7.985-19.604,10.914c-0.227,0.086-0.227,0.091-0.443,0.173
		c0.227-0.047,0.227-0.015,0.434-0.067c7.817-1.838,20.962-6.58,22.213-6.998c14.985-4.975,28.726-11.762,36.174-28.44
		c2.394-7.577,1.92-14.752-0.591-22.603c-5.247-11.882-17.771-23.49-33.875-26.828c-1.97-0.408-8.335-1.22-9.96-1.28l-40.112-0.63
		c0,0,39.507-7.961,58.082-17.438c18.57-9.479,63.488-43.971,63.222-53.827l-25.289,18.196l3.942-9.475
		c0,0-11.057,10.236-11.057,8.716c0-1.516,5.14-16.674,5.14-16.674s-37.938,62.54-98.388,64.814c0,0,30.819-18.951,20.15-14.781
		s-16.596,3.791-16.596,3.791l28.056-19.712l-20.941,8.716l4.342-7.582c0,0-68.749,45.487-80.601,43.971
		c-5.517,0.063-16.204-0.379-22.126,3.035c-5.928,3.407,13.829-16.298-13.834-15.542c0,0,29.314-17.341,30.824-17.816
		c4.637-1.453,13.58-1.607,16.196,2.651c1.534,2.496,1.766,6.201-1.577,9.477c-4.064,3.987-7.486,8.546-8.702,9.832
		c-0.071,0.071,0.025,0.177,0.111,0.133l103.025-56.583h-13.036c0,0,25.073-13.627,34.954-28.029c0,0-43.255,24.994-46.021,22.341
		c0,0,67.437-37.918,63.882-46.258c-1.969-0.342-10.935,11.387-70.203,23.518c-59.272,12.13-148.941,68.859-163.584,108.407
		c0,0,11.065-4.552,9.881,4.169c-0.51,3.757,23.083-18.831,26.471-20.091c5.893-2.195,14.226,8.339,10.275,12.886
		c-3.954,4.546-42.673,17.755-42.673,17.755s-8.692-13.586-18.177,3.852c0,0-13.825-7.205-17.385-6.441
		c-3.555,0.755-3.161,2.272-1.976,3.791c1.184,1.512,15.017,11.747,21.732,9.472c2.688-0.908,6.322,6.826,16.203,3.791
		c1.851-0.571,19.183,11.439,33.585,21.229c15.82,10.747,37.536,19.711,37.536,19.711s-28.844-15.921-32.399-24.263
		c0,0,51.25,25.637,72.737,26.764c0,0-35.99-14.252-43.498-21.078c0,0,79.026,22.363,78.238,14.402c0,0-67.82-13.368-64.802-21.224
		c0,0,99.962,9.477,99.569,3.03c0,0-86.924-6.821-85.347-13.265c0,0,92.461,0.38,92.062-5.307c0,0-87.717,1.517-85.342-3.029
		c0,0,41.881-1.141,41.881-6.063c0,0-41.881,4.923-41.489,0c0,0,74.287-9.1,73.893-14.026c0,0-71.125,8.716-71.125,4.926
		c0,0,61.239-12.886,60.845-16.677l-86.531,9.093"/>
	<path fill="#FFFFFF" d="M478.821,80.711l3.46-4.058l-62.364-53.131L392.45,43.018l-6.119-10.298l-33.083,24.283L289.336-0.17
		l-51.412,43.702l-9.169-8.837l-57.883,51.365l-63.438-52.172l-6.162,10.39L80.211,28.046L5.469,79.936v2.787
		c0,0.02,0,33.753,0.625,75.028c0.135,9.235,0.886,24.916,1.678,39.328c0.399,7.201,0.808,14.075,1.16,19.636
		c0.352,5.57,0.645,9.794,0.817,11.82c10.03,116.756,48.412,200.139,91.32,258.099c42.912,57.968,90.265,90.524,118.233,106.136
		c8.337,4.658,17.634,6.991,26.929,6.991c8.854,0,17.726-2.116,25.775-6.39c27.962-14.839,75.215-45.981,118.055-103.149
		c42.841-57.151,81.166-140.332,91.333-258.691l-5.307-0.46l5.272,0.778c0.664-4.542,1.166-10.703,1.58-18.088
		c1.222-22.112,1.521-55.05,1.521-82.683c0-27.958-0.31-50.422-0.31-50.441l-0.041-2.415l-1.831-1.567L478.821,80.711l-5.331,0.077
		c0,0,0.02,1.391,0.054,3.926c0.083,7.614,0.261,25.452,0.261,46.363c0,18.361-0.139,39.092-0.582,57.3
		c-0.227,9.106-0.526,17.581-0.925,24.798c-0.395,7.205-0.896,13.184-1.481,17.121l-0.024,0.162l-0.01,0.16
		c-10.039,116.514-47.573,197.573-89.246,253.214c-41.679,55.631-87.611,85.839-114.531,100.12
		c-6.464,3.432-13.617,5.15-20.772,5.15c-7.516,0-15.023-1.885-21.738-5.638c-26.949-15.044-73.056-46.699-114.858-103.173
		c-41.792-56.492-79.375-137.792-89.265-252.667c-0.158-1.821-0.455-6.06-0.802-11.579c-0.524-8.301-1.18-19.562-1.728-30.43
		c-0.552-10.865-0.995-21.367-1.09-28.025c-0.313-20.592-0.468-39.318-0.544-52.889c-0.04-6.784-0.06-12.28-0.072-16.081
		c-0.005-3.795-0.005-5.888-0.005-5.898h-5.327l3.035,4.382l66.044-45.856l24.416,18.818l5.964-10.053l60.871,50.061l57.325-50.865
		l9.023,8.692l51.673-43.929l63.429,56.738l30.577-22.444l6.021,10.141l30.134-21.394l56.045,47.757L478.821,80.711l-5.331,0.077
		L478.821,80.711z"/>
</g>
</svg>
